<svg width="100" height="100" viewBox="0 0 100 100" fill="none" xmlns="http://www.w3.org/2000/svg">
  <path d="M50 15L60 25H85V50L95 60L85 70V95H60L50 85L40 95H15V70L5 60L15 50V25H40L50 15Z" fill="#2C3E50"/>
  <path d="M50 35C58.2843 35 65 41.7157 65 50C65 58.2843 58.2843 65 50 65C41.7157 65 35 58.2843 35 50C35 41.7157 41.7157 35 50 35Z" fill="#ECF0F1"/>
  <path d="M50 42C54.4183 42 58 45.5817 58 50C58 54.4183 54.4183 58 50 58C45.5817 58 42 54.4183 42 50C42 45.5817 45.5817 42 50 42Z" fill="#2C3E50"/>
  <path d="M20 10C35 15 65 15 80 10" stroke="#BDC317" stroke-width="4" stroke-linecap="round"/>
</svg>
